<svg id="Layer_1" enable-background="new 0 0 512 512" height="512" viewBox="0 0 512 512" width="512" xmlns="http://www.w3.org/2000/svg"><path d="m432 316c0 11.046-8.954 20-20 20h-152c-26.536-1.056-26.516-38.953 0-40h152c11.046 0 20 8.954 20 20zm-90 56h-82c-26.536 1.056-26.516 38.953 0 40h82c26.536-1.056 26.516-38.953 0-40zm170-252v272c0 66.168-53.832 120-120 120h-272c-66.168 0-120-53.832-120-120v-272c0-66.168 53.832-120 120-120h272c66.168 0 120 53.832 120 120zm-40 0c0-44.112-35.888-80-80-80h-272c-44.112 0-80 35.888-80 80v272c0 44.112 35.888 80 80 80h272c44.112 0 80-35.888 80-80zm-60 100h-152c-26.536 1.056-26.516 38.953 0 40h152c26.536-1.056 26.516-38.953 0-40zm-212 40c-1.057 26.534-38.951 26.519-40 0-1.095-26.528-38.905-26.528-40 0v46h20c26.536 1.056 26.516 38.953 0 40h-20v46c-1.056 26.536-38.953 26.516-40 0v-132c3.305-79.618 116.724-79.556 120 0zm212-151h-312c-26.536 1.056-26.516 38.953 0 40h312c26.536-1.056 26.516-38.953 0-40z"/></svg>